<svg xmlns="http://www.w3.org/2000/svg" width="20" height="16" viewBox="0 0 20 16">
    <path fill="#9CA8B5" fill-rule="nonzero" d="M13.981 0H6.018s-.996 0-.996 1h9.955c0-1-.996-1-.996-1zm2.987 3c0-1-.995-1-.995-1H4.027s-.995 0-.995 1v1h13.936V3zm1.99 1l-.588-.592V5H1.63V3.408L1.041 4C.452 4.592.03 4.75.267 6c.236 1.246 1.379 8.076 1.549 9 .186 1.014 1.217 1 1.217 1h13.936s1.03.014 1.217-1c.17-.924 1.312-7.754 1.549-9 .235-1.25-.187-1.408-.777-2zM14 9.997c0 .554-.449 1.003-1.003 1.003H7.003A1.003 1.003 0 0 1 6 9.997V8h1v2h6V8h1v1.997z"/>
</svg>
