<svg xmlns="http://www.w3.org/2000/svg" width="14" height="12" viewBox="0 0 14 12">
    <path fill="#FFF" fill-rule="evenodd" d="M9.37 4.685a13.942 13.942 0 0 0 .96-4.427h3.076c-.138 1.149-.41 2.174-.815 3.075-.406.902-1.077 1.965-2.013 3.19 1.26 2.277 2.343 3.966 3.251 5.067h-3.395a37.612 37.612 0 0 1-1.755-2.787c-1.747 2.03-3.34 3.045-4.778 3.045-1.156 0-2.095-.494-2.817-1.481C.36 9.379 0 8.095 0 6.512 0 4.675.492 3.13 1.476 1.878 2.46.626 3.674 0 5.119 0 6.405 0 7.45.812 8.256 2.436l.754 1.537c.075.152.196.389.36.712zM7.75 7.07l-.412-.856a48.356 48.356 0 0 0-.33-.723 33.664 33.664 0 0 0-.558-1.186l-.64-1.167c-.302-.543-.605-.815-.908-.815-.481 0-.886.389-1.213 1.166-.326.778-.49 1.734-.49 2.87 0 1.107.122 1.936.367 2.486.244.55.614.826 1.11.826.715 0 1.74-.867 3.075-2.6z"/>
</svg>
