<svg xmlns="http://www.w3.org/2000/svg" width="18" height="19" viewBox="0 0 18 19">
    <path fill="#FFF" fill-rule="nonzero" d="M10.18 13.556c0-1.451 1.1-2.254 2.894-3.442C15.268 8.658 18 6.849 18 2.554a.703.703 0 0 0-.709-.699h-3.43C13.377.959 11.932 0 9 0 6.066 0 4.623.959 4.138 1.855H.707A.703.703 0 0 0 0 2.554c0 4.295 2.73 6.104 4.926 7.559 1.794 1.188 2.894 1.991 2.894 3.442v1.311c-1.884.209-3.269.906-3.269 1.736 0 .994 1.992 1.799 4.449 1.799s4.449-.805 4.449-1.799c0-.83-1.385-1.527-3.269-1.736v-1.31zM12.957 8.5c.566-1.199 1.016-2.826 1.088-5.246h2.51c-.24 2.701-1.862 4.064-3.598 5.246zM9 1.226c2.732-.002 3.799 1.115 3.798 1.529 0 .418-1.066 1.533-3.798 1.535-2.732-.001-3.799-1.116-3.799-1.534C5.2 2.342 6.268 1.224 9 1.226zM1.445 3.254h2.509c.073 2.42.521 4.047 1.089 5.246-1.736-1.182-3.359-2.545-3.598-5.246z"/>
</svg>
