<svg xmlns="http://www.w3.org/2000/svg" width="9" height="17" viewBox="0 0 9 17">
    <path fill="#FFF" fill-rule="evenodd" d="M0 17V5.443C0 3.628.359 2.268 1.076 1.36 1.793.454 2.872 0 4.312 0c1.077 0 1.937.27 2.58.812.644.542.966 1.266.966 2.173 0 .675-.199 1.284-.595 1.828-.397.545-.993 1.027-1.786 1.446 1.054.323 1.87.812 2.449 1.467.578.655.867 1.416.867 2.284 0 1.094-.402 2.008-1.207 2.742s-1.803 1.101-2.994 1.101c-.657 0-1.349-.107-2.075-.323V17H0zM3.036 5.85h.213c.595 0 1.095-.258 1.5-.777.406-.519.609-1.161.609-1.926 0-.522-.108-.915-.323-1.178-.216-.264-.536-.396-.961-.396-.522 0-.912.265-1.17.795-.258.53-.387 1.326-.387 2.386v7.075c.63.3 1.208.451 1.735.451a1.86 1.86 0 0 0 1.433-.642c.388-.428.583-.954.583-1.577 0-.76-.288-1.398-.864-1.914-.575-.516-1.288-.774-2.138-.774h-.23V5.851z"/>
</svg>
