<svg xmlns="http://www.w3.org/2000/svg" width="20" height="18" viewBox="0 0 20 18">
    <path fill="#FFF" fill-rule="nonzero" d="M3.094 5.749c.933-.725 1.707-.225 2.74.97.116.136.272-.022.361-.1.088-.077 1.451-1.304 1.518-1.36.066-.06.146-.17.041-.292a36.238 36.238 0 0 1-.743-.951C5.203 1.65 11.957.046 10.921.022c-.529-.014-2.647-.04-2.964-.004C6.674.153 5.063 1.352 4.252 1.91c-1.06.726-1.457 1.152-1.522 1.21-.3.263-.048.868-.592 1.345-.575.503-.934.122-1.267.414-.165.146-.627.492-.759.607-.133.117-.157.314-.02.47 0 0 1.263 1.397 1.37 1.52.104.123.39.229.566.072.177-.156.632-.553.708-.623.078-.066-.05-.861.358-1.177zm5.708.517c-.12-.14-.269-.143-.397-.03L6.971 7.49a.289.289 0 0 0-.027.4l8.294 9.439c.194.223.53.246.751.053l.97-.813a.54.54 0 0 0 .052-.758L8.802 6.266zm11.06-4.017c-.075-.494-.33-.391-.464-.182-.133.21-.72 1.102-.963 1.506-.24.4-.832 1.19-1.934.41-1.148-.811-.749-1.377-.549-1.758.201-.383.818-1.457.907-1.59.09-.135-.015-.527-.37-.363-.358.164-2.524 1.025-2.824 2.26-.307 1.256.257 2.379-.85 3.494l-1.343 1.4 1.35 1.566 1.653-1.57c.394-.396 1.236-.781 1.998-.607 1.633.369 2.524-.244 3.061-1.258.482-.906.402-2.814.327-3.308zM2.697 15.912a.538.538 0 0 0 0 .758l.951.93c.208.209.538.12.746-.088l4.907-4.824L7.8 10.974l-5.1 4.938z"/>
</svg>
