<svg xmlns="http://www.w3.org/2000/svg" width="14" height="18" viewBox="0 0 14 18">
    <path fill="#FFF" fill-rule="nonzero" d="M13.432 14C11.387 8.893 9 7.547 9 5V2h.5a.5.5 0 0 0 .5-.5v-1a.5.5 0 0 0-.5-.5h-5a.5.5 0 0 0-.5.5v1a.5.5 0 0 0 .5.5H5v3C5 7.547 2.613 8.893.568 14c-.65 1.625-2.323 4 6.432 4s7.083-2.375 6.432-4zm-1.617 1.751c-.702.21-2.099.449-4.815.449s-4.113-.239-4.815-.449c-.249-.074-.346-.363-.258-.628.22-.67.635-1.828 1.411-3.121 1.896-3.159 3.863.497 5.5.497s1.188-1.561 1.824-.497a15.353 15.353 0 0 1 1.411 3.121c.088.265-.009.553-.258.628z"/>
</svg>
