<svg xmlns="http://www.w3.org/2000/svg" width="20" height="14" viewBox="0 0 20 14">
    <path fill="#FFF" fill-rule="nonzero" d="M8.127 10.088c-.689 1.197-.225 2.18.732 2.732.956.553 2.041.465 2.732-.732C12.28 10.893 16.638.223 16.259.004c-.379-.22-7.442 8.888-8.132 10.084zM10 2.488c.438 0 .864.037 1.281.109.438-.55.928-1.154 1.405-1.728A9.664 9.664 0 0 0 10 .488C4.393.488 0 5.217 0 11.254c0 .37.016.742.049 1.103.049.55.54.955 1.084.908.551-.051.957-.535.908-1.086A10.462 10.462 0 0 1 2 11.254c0-4.916 3.514-8.766 8-8.766zm7.219 1.25c-.279.75-.574 1.514-.834 2.174C17.4 7.382 18 9.226 18 11.254c0 .316-.015.635-.043.943a1.001 1.001 0 0 0 1.992.182c.033-.37.051-.748.051-1.125 0-2.954-1.053-5.59-2.781-7.516z"/>
</svg>
