<svg xmlns="http://www.w3.org/2000/svg" width="18" height="18" viewBox="0 0 18 18">
    <path fill="#FFF" fill-rule="nonzero" d="M10.862 11.369s7.06-5.094 6.276-10.924a.465.465 0 0 0-.112-.268.436.436 0 0 0-.263-.115C11.066-.739 6.09 6.484 6.09 6.484c-4.318-.517-4.004.344-5.974 5.076-.377.902.234 1.213.904.959l2.148-.811 2.59 2.648-.793 2.199c-.248.686.055 1.311.938.926 4.624-2.016 5.466-1.694 4.96-6.112zm1.01-5.916a1.594 1.594 0 0 1 0-2.217 1.509 1.509 0 0 1 2.165 0 1.594 1.594 0 0 1 0 2.217 1.509 1.509 0 0 1-2.166 0z"/>
</svg>
