<svg xmlns="http://www.w3.org/2000/svg" width="20" height="18" viewBox="0 0 20 18">
    <path fill="#FFF" fill-rule="nonzero" d="M10 0a4 4 0 0 0-4 4h8a4 4 0 0 0-4-4zm9 9h-3V6.503c0-.028-.007-.053-.008-.08l2.215-2.216a1 1 0 1 0-1.414-1.414l-2.215 2.215c-.028-.001-.053-.008-.08-.008H5.502c-.028 0-.053.007-.08.008L3.206 2.793a1 1 0 1 0-1.414 1.414l2.215 2.215C4.007 6.45 4 6.475 4 6.503V9H1a1 1 0 0 0 0 2h3c0 .78.156 1.52.427 2.204-.044.031-.094.05-.134.089L1.464 16.12a1 1 0 0 0 1.415 1.415l2.601-2.602A5.995 5.995 0 0 0 9 16.91V7h2v9.91a5.995 5.995 0 0 0 3.52-1.976l2.601 2.602a1 1 0 0 0 1.415-1.415l-2.829-2.828c-.04-.04-.09-.058-.134-.09A5.956 5.956 0 0 0 16 11h3a1 1 0 0 0 0-2z"/>
</svg>
