<svg xmlns="http://www.w3.org/2000/svg" width="20" height="16" viewBox="0 0 20 16">
    <path fill="#FFF" fill-rule="nonzero" d="M16.28 13.023c0 1.027.833 1.86 1.86 1.86 1.026 0 1.86-.833 1.86-1.86 0-1.026-.838-1.86-1.86-1.86-1.023 0-1.86.834-1.86 1.86zm2.758 0a.902.902 0 0 1-.902.898.899.899 0 0 1-.903-.898c0-.497.407-.898.907-.898.499 0 .898.401.898.898zM3.72 1.86c0 1.023-.834 1.86-1.86 1.86A1.862 1.862 0 0 1 0 1.86C0 .834.834 0 1.86 0c1.027 0 1.86.834 1.86 1.86zm-2.763 0c0 .494.407.895.902.899a.899.899 0 1 0 0-1.797c-.499 0-.902.405-.902.898zm10.348 4.743l1.022-1.022-1.022-1.021A.492.492 0 0 1 12 3.865l1.022 1.022 1.022-1.022a.491.491 0 1 1 .695.695L13.718 5.58l1.022 1.022a.49.49 0 1 1-.695.695l-1.022-1.022L12 7.298a.491.491 0 1 1-.695-.695zM6.833 14.74a.491.491 0 0 1-.695 0l-1.022-1.022-1.022 1.022a.491.491 0 1 1-.695-.695l1.022-1.022-1.022-1.021a.492.492 0 0 1 .695-.695l1.022 1.022 1.022-1.022a.491.491 0 1 1 .695.695L5.81 13.023l1.022 1.022a.49.49 0 0 1 0 .695zM4.507 9.158a.499.499 0 0 1-.695 0L2.79 8.137 1.768 9.158a.491.491 0 1 1-.695-.694l1.022-1.022L1.073 6.42a.492.492 0 0 1 .695-.695L2.79 6.747l1.022-1.022a.491.491 0 1 1 .695.695L3.485 7.442l1.022 1.022a.49.49 0 0 1 0 .694zm3.865-3.577a.464.464 0 1 1 .93 0c0 .256-.209.466-.465.466a.466.466 0 0 1-.465-.466zM6.59 2.071a.46.46 0 0 1 .645-.132c.213.14.272.43.132.644a.468.468 0 0 1-.645.132.463.463 0 0 1-.132-.644zm2.208 1.46a.465.465 0 1 1-.851.378.465.465 0 0 1 .85-.377zm-.425 3.91a.465.465 0 1 1 .93 0 .465.465 0 0 1-.93 0zm-3.256-5.58a.47.47 0 0 1 .136-.33.47.47 0 0 1 .659 0 .47.47 0 0 1 0 .659.47.47 0 0 1-.66 0 .47.47 0 0 1-.135-.33zM12.79 15.21a.521.521 0 0 1-.71 0 .467.467 0 0 1-.146-.335.46.46 0 0 1 .147-.336l1.086-1.021h-1.304c-2.182 0-3.956-1.68-3.956-3.742 0-.26.226-.474.503-.474s.504.213.504.474c0 1.542 1.321 2.796 2.949 2.796h1.3l-1.087-1.022a.454.454 0 0 1 0-.67.527.527 0 0 1 .714 0l1.946 1.83a.454.454 0 0 1 0 .67l-1.946 1.83z"/>
</svg>
