<svg xmlns="http://www.w3.org/2000/svg" width="24" height="18" viewBox="0 0 24 18">
    <path fill="#FFF" fill-rule="nonzero" d="M5.433 10.593a1 1 0 0 1-.946.675H1a1 1 0 1 1 0-2h2.773l1.838-5.344c.33-.96 1.714-.875 1.924.118l1.484 7.02L10.883.82c.197-1.085 1.748-1.099 1.964-.017l2.118 10.575 1.616-7.345c.22-1 1.62-1.063 1.93-.088l1.688 5.322h2.1a1 1 0 0 1 0 2h-2.831a1 1 0 0 1-.954-.697l-.781-2.464-1.837 8.35c-.233 1.057-1.745 1.043-1.958-.018L11.914 6.327l-1.838 10.095c-.196 1.079-1.735 1.1-1.962.027L6.326 7.994l-.893 2.6z"/>
</svg>
