<svg xmlns="http://www.w3.org/2000/svg" width="14" height="18" viewBox="0 0 14 18">
    <path fill="#FFF" fill-rule="nonzero" d="M13.726 11.641c-.843 1.363-3.535 2.361-6.726 2.361s-5.883-.998-6.727-2.361c-.178-.29-.273-.135-.273.007v2.002c0 1.94 3.134 3.95 7 3.95s7-2.01 7-3.949v-2.002c0-.143-.096-.298-.274-.008zm.011-5.116c-.83 1.205-3.532 2.09-6.737 2.09S1.092 7.73.262 6.525C.091 6.277 0 6.412 0 6.523V8.88c0 1.762 3.134 3.189 7 3.189s7-1.428 7-3.189V6.523c0-.111-.092-.246-.263.002zM7 0C3.134 0 0 1.18 0 2.633v1.26c0 1.541 3.134 2.791 7 2.791s7-1.25 7-2.791v-1.26C14 1.18 10.866 0 7 0z"/>
</svg>
