<svg xmlns="http://www.w3.org/2000/svg" width="20" height="16" viewBox="0 0 20 16">
    <path fill="#9CA8B5" fill-rule="nonzero" d="M19.059 8.898a4.22 4.22 0 0 1 .245 2.272l-.59 3.539A1.544 1.544 0 0 1 17.191 16H2.808a1.544 1.544 0 0 1-1.523-1.291l-.59-3.539a4.25 4.25 0 0 1 .246-2.272L4.112.971A1.543 1.543 0 0 1 5.546 0h8.908c.632 0 1.2.384 1.434.971l3.171 7.927zm-2.1 4.347l.366-2.193A.903.903 0 0 0 16.434 10H3.567a.902.902 0 0 0-.891 1.052l.365 2.193a.902.902 0 0 0 .891.755h12.136a.902.902 0 0 0 .891-.755zM8 2v3h4V2H8zm2 6l4-3H6l4 3z"/>
</svg>
